<svg xmlns="http://www.w3.org/2000/svg" width="160" height="160" viewBox="0 0 160 160" role="img" aria-label="Machete FotMob mode">
  <rect width="160" height="160" fill="none"/>
  <g opacity="0.95">
    <path d="M20 46 140 112" stroke="#b91c1c" stroke-width="16" stroke-linecap="round"/>
    <path d="M18 114 138 44" stroke="#dc2626" stroke-width="13" stroke-linecap="round"/>
    <path d="M29 37c-4-10-1-19 9-23m12 16c0-10 6-19 17-24m48 22c8-8 17-9 27-2m-15 24c11-3 20 0 27 8m-28 61c9 6 13 14 11 25m-30-18c4 10 2 19-7 26m-51-25c-6 9-14 13-25 11m23-29c-11 1-19-3-24-13" fill="none" stroke="#ef4444" stroke-width="5" stroke-linecap="round"/>
  </g>
  <circle cx="80" cy="78" r="45" fill="#f8fafc" stroke="#111827" stroke-width="5"/>
  <path d="M43 85c8 27 35 42 61 27 18-10 27-33 18-53 4 25-11 43-34 49-21 6-39-3-45-23Z" fill="#e5e7eb"/>
  <path d="M52 59c11-12 29-17 45-11 13 5 23 16 27 30" fill="none" stroke="#111827" stroke-width="4" stroke-linecap="round"/>
  <path d="M53 75c11 4 21 3 31-4 11 7 22 8 34 1" fill="none" stroke="#111827" stroke-width="4" stroke-linecap="round"/>
  <path d="M51 92c20 15 44 14 67-1" fill="none" stroke="#111827" stroke-width="4" stroke-linecap="round"/>
  <path d="M59 95c3 5 7 8 12 10m4-12c2 7 5 12 11 15m9-17c-2 7-5 12-10 16m19-19c-2 6-6 10-12 13" fill="none" stroke="#111827" stroke-width="3" stroke-linecap="round"/>
  <path d="M61 62c5-6 13-6 18 0m28-3c-6-4-13-4-19 1" fill="none" stroke="#111827" stroke-width="4" stroke-linecap="round"/>
  <circle cx="68" cy="66" r="4" fill="#111827"/>
  <circle cx="98" cy="65" r="4" fill="#111827"/>
  <path d="M79 70c-4 6-5 12-1 18 5 1 10 0 15-3" fill="none" stroke="#111827" stroke-width="3" stroke-linecap="round"/>
  <path d="M43 119c-9 4-18 5-27 1m100-4c9 5 18 6 27 4" stroke="#7c2d12" stroke-width="5" stroke-linecap="round"/>
</svg>
